<svg width="206" height="65" viewBox="0 0 206 65" fill="none" xmlns="http://www.w3.org/2000/svg">
<g id="Group 32150">
<g id="Group 31791">
<g id="Rectangle 1583" filter="url(#filter0_d_498_391)">
<path d="M8 15C8 9.47716 12.4772 5 18 5H187.043C192.566 5 197.043 9.47715 197.043 15V43.3599C197.043 48.8827 192.566 53.3599 187.043 53.3599H18C12.4771 53.3599 8 48.8828 8 43.3599V15Z" fill="#101010"/>
</g>
<g id="Group 31784">
<path id="Vector" d="M54.7506 27.3898C54.7603 28.461 54.9904 29.3562 55.3325 30.0974C56.4208 32.4555 58.0108 35.1358 56.5707 37.2971C55.4038 39.0487 54.1927 40.7938 52.2848 40.83C50.4101 40.8655 49.8073 39.6884 47.6639 39.6884C45.5213 39.6884 44.8515 40.7939 43.0769 40.8655C41.2353 40.9371 39.8329 38.9715 38.6563 37.2262C36.252 33.6564 34.4146 27.1388 36.8817 22.7393C38.1074 20.5545 40.2977 19.171 42.675 19.1355C44.4835 19.1001 46.1903 20.385 47.2959 20.385C48.4007 20.385 50.475 18.8398 52.6556 19.0667C55.993 19.2094 54.9574 23.6106 54.7616 26.9453C54.7531 27.0902 54.7493 27.2384 54.7506 27.3898ZM51.2273 16.705C51.259 16.6656 51.2903 16.6258 51.3213 16.5854C52.9605 14.4503 50.281 12.2243 48.5592 14.2933C46.7562 16.4342 49.4735 18.8864 51.2273 16.705Z" fill="white"/>
<g id="Download on the">
<path id="Vector_2" d="M166.469 21.566C166.469 21.814 166.453 22.038 166.421 22.238H161.369C161.409 22.766 161.605 23.19 161.957 23.51C162.309 23.83 162.741 23.99 163.253 23.99C163.989 23.99 164.509 23.682 164.813 23.066H166.289C166.089 23.674 165.725 24.174 165.197 24.566C164.677 24.95 164.029 25.142 163.253 25.142C162.621 25.142 162.053 25.002 161.549 24.722C161.053 24.434 160.661 24.034 160.373 23.522C160.093 23.002 159.953 22.402 159.953 21.722C159.953 21.042 160.089 20.446 160.361 19.934C160.641 19.414 161.029 19.014 161.525 18.734C162.029 18.454 162.605 18.314 163.253 18.314C163.877 18.314 164.433 18.45 164.921 18.722C165.409 18.994 165.789 19.378 166.061 19.874C166.333 20.362 166.469 20.926 166.469 21.566ZM165.041 21.134C165.033 20.63 164.853 20.226 164.501 19.922C164.149 19.618 163.713 19.466 163.193 19.466C162.721 19.466 162.317 19.618 161.981 19.922C161.645 20.218 161.445 20.622 161.381 21.134H165.041Z" fill="white"/>
<path id="Vector_3" d="M156.029 18.3138C156.533 18.3138 156.981 18.4218 157.373 18.6378C157.773 18.8538 158.085 19.1738 158.309 19.5978C158.541 20.0218 158.657 20.5338 158.657 21.1338V25.0338H157.301V21.3378C157.301 20.7458 157.153 20.2938 156.857 19.9818C156.561 19.6618 156.157 19.5018 155.645 19.5018C155.133 19.5018 154.725 19.6618 154.421 19.9818C154.125 20.2938 153.977 20.7458 153.977 21.3378V25.0338H152.609V16.1538H153.977V19.1898C154.209 18.9098 154.501 18.6938 154.853 18.5418C155.213 18.3898 155.605 18.3138 156.029 18.3138Z" fill="white"/>
<path id="Vector_4" d="M149.746 19.5378V23.1978C149.746 23.4458 149.802 23.6258 149.914 23.7378C150.034 23.8418 150.234 23.8938 150.514 23.8938H151.354V25.0338H150.274C149.658 25.0338 149.186 24.8898 148.858 24.6018C148.53 24.3138 148.366 23.8458 148.366 23.1978V19.5378H147.586V18.4218H148.366V16.7778H149.746V18.4218H151.354V19.5378H149.746Z" fill="white"/>
<path id="Vector_5" d="M140.57 18.314C141.09 18.314 141.554 18.422 141.962 18.638C142.378 18.854 142.702 19.174 142.934 19.598C143.166 20.022 143.282 20.534 143.282 21.134V25.034H141.926V21.338C141.926 20.746 141.778 20.294 141.482 19.982C141.186 19.662 140.782 19.502 140.27 19.502C139.758 19.502 139.35 19.662 139.046 19.982C138.75 20.294 138.602 20.746 138.602 21.338V25.034H137.234V18.422H138.602V19.178C138.826 18.906 139.11 18.694 139.454 18.542C139.806 18.39 140.178 18.314 140.57 18.314Z" fill="white"/>
<path id="Vector_6" d="M132.453 25.142C131.829 25.142 131.265 25.002 130.761 24.722C130.257 24.434 129.861 24.034 129.573 23.522C129.285 23.002 129.141 22.402 129.141 21.722C129.141 21.05 129.289 20.454 129.585 19.934C129.881 19.414 130.285 19.014 130.797 18.734C131.309 18.454 131.881 18.314 132.513 18.314C133.145 18.314 133.717 18.454 134.229 18.734C134.741 19.014 135.145 19.414 135.441 19.934C135.737 20.454 135.885 21.05 135.885 21.722C135.885 22.394 135.733 22.99 135.429 23.51C135.125 24.03 134.709 24.434 134.181 24.722C133.661 25.002 133.085 25.142 132.453 25.142ZM132.453 23.954C132.805 23.954 133.133 23.87 133.437 23.702C133.749 23.534 134.001 23.282 134.193 22.946C134.385 22.61 134.481 22.202 134.481 21.722C134.481 21.242 134.389 20.838 134.205 20.51C134.021 20.174 133.777 19.922 133.473 19.754C133.169 19.586 132.841 19.502 132.489 19.502C132.137 19.502 131.809 19.586 131.505 19.754C131.209 19.922 130.973 20.174 130.797 20.51C130.621 20.838 130.533 21.242 130.533 21.722C130.533 22.434 130.713 22.986 131.073 23.378C131.441 23.762 131.901 23.954 132.453 23.954Z" fill="white"/>
<path id="Vector_7" d="M117.883 21.6978C117.883 21.0338 118.019 20.4458 118.291 19.9338C118.571 19.4218 118.947 19.0258 119.419 18.7458C119.899 18.4578 120.431 18.3138 121.015 18.3138C121.447 18.3138 121.871 18.4098 122.287 18.6018C122.711 18.7858 123.047 19.0338 123.295 19.3458V16.1538H124.675V25.0338H123.295V24.0378C123.071 24.3578 122.759 24.6218 122.359 24.8298C121.967 25.0378 121.515 25.1418 121.003 25.1418C120.427 25.1418 119.899 24.9978 119.419 24.7098C118.947 24.4138 118.571 24.0058 118.291 23.4858C118.019 22.9578 117.883 22.3618 117.883 21.6978ZM123.295 21.7218C123.295 21.2658 123.199 20.8698 123.007 20.5338C122.823 20.1978 122.579 19.9418 122.275 19.7658C121.971 19.5898 121.643 19.5018 121.291 19.5018C120.939 19.5018 120.611 19.5898 120.307 19.7658C120.003 19.9338 119.755 20.1858 119.563 20.5218C119.379 20.8498 119.287 21.2418 119.287 21.6978C119.287 22.1538 119.379 22.5538 119.563 22.8978C119.755 23.2418 120.003 23.5058 120.307 23.6898C120.619 23.8658 120.947 23.9538 121.291 23.9538C121.643 23.9538 121.971 23.8658 122.275 23.6898C122.579 23.5138 122.823 23.2578 123.007 22.9218C123.199 22.5778 123.295 22.1778 123.295 21.7218Z" fill="white"/>
<path id="Vector_8" d="M109.75 21.698C109.75 21.034 109.886 20.446 110.158 19.934C110.438 19.422 110.814 19.026 111.286 18.746C111.766 18.458 112.294 18.314 112.87 18.314C113.39 18.314 113.842 18.418 114.226 18.626C114.618 18.826 114.93 19.078 115.162 19.382V18.422H116.542V25.034H115.162V24.05C114.93 24.362 114.614 24.622 114.214 24.83C113.814 25.038 113.358 25.142 112.846 25.142C112.278 25.142 111.758 24.998 111.286 24.71C110.814 24.414 110.438 24.006 110.158 23.486C109.886 22.958 109.75 22.362 109.75 21.698ZM115.162 21.722C115.162 21.266 115.066 20.87 114.874 20.534C114.69 20.198 114.446 19.942 114.142 19.766C113.838 19.59 113.51 19.502 113.158 19.502C112.806 19.502 112.478 19.59 112.174 19.766C111.87 19.934 111.622 20.186 111.43 20.522C111.246 20.85 111.154 21.242 111.154 21.698C111.154 22.154 111.246 22.554 111.43 22.898C111.622 23.242 111.87 23.506 112.174 23.69C112.486 23.866 112.814 23.954 113.158 23.954C113.51 23.954 113.838 23.866 114.142 23.69C114.446 23.514 114.69 23.258 114.874 22.922C115.066 22.578 115.162 22.178 115.162 21.722Z" fill="white"/>
<path id="Vector_9" d="M105.421 25.142C104.797 25.142 104.233 25.002 103.729 24.722C103.225 24.434 102.829 24.034 102.541 23.522C102.253 23.002 102.109 22.402 102.109 21.722C102.109 21.05 102.257 20.454 102.553 19.934C102.849 19.414 103.253 19.014 103.765 18.734C104.277 18.454 104.849 18.314 105.481 18.314C106.113 18.314 106.685 18.454 107.197 18.734C107.709 19.014 108.113 19.414 108.409 19.934C108.705 20.454 108.853 21.05 108.853 21.722C108.853 22.394 108.701 22.99 108.397 23.51C108.093 24.03 107.677 24.434 107.149 24.722C106.629 25.002 106.053 25.142 105.421 25.142ZM105.421 23.954C105.773 23.954 106.101 23.87 106.405 23.702C106.717 23.534 106.969 23.282 107.161 22.946C107.353 22.61 107.449 22.202 107.449 21.722C107.449 21.242 107.357 20.838 107.173 20.51C106.989 20.174 106.745 19.922 106.441 19.754C106.137 19.586 105.809 19.502 105.457 19.502C105.105 19.502 104.777 19.586 104.473 19.754C104.177 19.922 103.941 20.174 103.765 20.51C103.589 20.838 103.501 21.242 103.501 21.722C103.501 22.434 103.681 22.986 104.041 23.378C104.409 23.762 104.869 23.954 105.421 23.954Z" fill="white"/>
<path id="Vector_10" d="M100.759 16.1538V25.0338H99.3906V16.1538H100.759Z" fill="white"/>
<path id="Vector_11" d="M94.9298 18.314C95.4498 18.314 95.9138 18.422 96.3218 18.638C96.7378 18.854 97.0617 19.174 97.2937 19.598C97.5257 20.022 97.6418 20.534 97.6418 21.134V25.034H96.2858V21.338C96.2858 20.746 96.1378 20.294 95.8418 19.982C95.5458 19.662 95.1418 19.502 94.6298 19.502C94.1178 19.502 93.7098 19.662 93.4058 19.982C93.1098 20.294 92.9618 20.746 92.9618 21.338V25.034H91.5938V18.422H92.9618V19.178C93.1858 18.906 93.4698 18.694 93.8138 18.542C94.1658 18.39 94.5378 18.314 94.9298 18.314Z" fill="white"/>
<path id="Vector_12" d="M90.5741 18.4219L88.5221 25.0339H87.0821L85.7501 20.1499L84.4181 25.0339H82.9781L80.9141 18.4219H82.3061L83.6861 23.7379L85.0901 18.4219H86.5181L87.8621 23.7139L89.2301 18.4219H90.5741Z" fill="white"/>
<path id="Vector_13" d="M76.9057 25.142C76.2817 25.142 75.7178 25.002 75.2137 24.722C74.7097 24.434 74.3138 24.034 74.0258 23.522C73.7378 23.002 73.5938 22.402 73.5938 21.722C73.5938 21.05 73.7417 20.454 74.0377 19.934C74.3337 19.414 74.7378 19.014 75.2498 18.734C75.7618 18.454 76.3337 18.314 76.9657 18.314C77.5977 18.314 78.1698 18.454 78.6818 18.734C79.1938 19.014 79.5978 19.414 79.8938 19.934C80.1898 20.454 80.3378 21.05 80.3378 21.722C80.3378 22.394 80.1858 22.99 79.8818 23.51C79.5778 24.03 79.1617 24.434 78.6337 24.722C78.1137 25.002 77.5377 25.142 76.9057 25.142ZM76.9057 23.954C77.2577 23.954 77.5858 23.87 77.8898 23.702C78.2018 23.534 78.4538 23.282 78.6458 22.946C78.8377 22.61 78.9338 22.202 78.9338 21.722C78.9338 21.242 78.8418 20.838 78.6578 20.51C78.4738 20.174 78.2297 19.922 77.9257 19.754C77.6217 19.586 77.2937 19.502 76.9417 19.502C76.5897 19.502 76.2617 19.586 75.9577 19.754C75.6617 19.922 75.4258 20.174 75.2498 20.51C75.0738 20.838 74.9858 21.242 74.9858 21.722C74.9858 22.434 75.1658 22.986 75.5258 23.378C75.8938 23.762 76.3537 23.954 76.9057 23.954Z" fill="white"/>
<path id="Vector_14" d="M68.2552 16.6938C69.1432 16.6938 69.9193 16.8658 70.5833 17.2098C71.2552 17.5458 71.7713 18.0338 72.1312 18.6738C72.4992 19.3058 72.6832 20.0458 72.6832 20.8938C72.6832 21.7418 72.4992 22.4778 72.1312 23.1018C71.7713 23.7258 71.2552 24.2058 70.5833 24.5418C69.9193 24.8698 69.1432 25.0338 68.2552 25.0338H65.5312V16.6938H68.2552ZM68.2552 23.9178C69.2313 23.9178 69.9792 23.6538 70.4992 23.1258C71.0192 22.5978 71.2793 21.8538 71.2793 20.8938C71.2793 19.9258 71.0192 19.1698 70.4992 18.6258C69.9792 18.0818 69.2313 17.8098 68.2552 17.8098H66.8993V23.9178H68.2552Z" fill="white"/>
</g>
<g id="App Store">
<path id="Vector_15" d="M123.823 35.6337C123.823 35.8737 123.807 36.0897 123.775 36.2817H118.915C118.955 36.7617 119.123 37.1377 119.419 37.4097C119.715 37.6817 120.079 37.8177 120.511 37.8177C121.135 37.8177 121.579 37.5497 121.843 37.0137H123.655C123.463 37.6537 123.095 38.1817 122.551 38.5977C122.007 39.0057 121.339 39.2097 120.547 39.2097C119.907 39.2097 119.331 39.0697 118.819 38.7897C118.315 38.5017 117.919 38.0977 117.631 37.5777C117.351 37.0577 117.211 36.4577 117.211 35.7777C117.211 35.0897 117.351 34.4857 117.631 33.9657C117.911 33.4457 118.303 33.0457 118.807 32.7657C119.311 32.4857 119.891 32.3457 120.547 32.3457C121.179 32.3457 121.743 32.4817 122.239 32.7537C122.743 33.0257 123.131 33.4137 123.403 33.9177C123.683 34.4137 123.823 34.9857 123.823 35.6337ZM122.083 35.1537C122.075 34.7217 121.919 34.3777 121.615 34.1217C121.311 33.8577 120.939 33.7257 120.499 33.7257C120.083 33.7257 119.731 33.8537 119.443 34.1097C119.163 34.3577 118.991 34.7057 118.927 35.1537H122.083Z" fill="white"/>
<path id="Vector_16" d="M114.477 33.4859C114.693 33.1339 114.973 32.8579 115.317 32.6579C115.669 32.4579 116.069 32.3579 116.517 32.3579V34.1219H116.073C115.545 34.1219 115.145 34.2459 114.873 34.4939C114.609 34.7419 114.477 35.1739 114.477 35.7899V39.1019H112.797V32.4539H114.477V33.4859Z" fill="white"/>
<path id="Vector_17" d="M108.091 39.2097C107.451 39.2097 106.875 39.0697 106.363 38.7897C105.851 38.5017 105.447 38.0977 105.151 37.5777C104.863 37.0577 104.719 36.4577 104.719 35.7777C104.719 35.0977 104.867 34.4977 105.163 33.9777C105.467 33.4577 105.879 33.0577 106.399 32.7777C106.919 32.4897 107.499 32.3457 108.139 32.3457C108.779 32.3457 109.359 32.4897 109.879 32.7777C110.399 33.0577 110.807 33.4577 111.103 33.9777C111.407 34.4977 111.559 35.0977 111.559 35.7777C111.559 36.4577 111.403 37.0577 111.091 37.5777C110.787 38.0977 110.371 38.5017 109.843 38.7897C109.323 39.0697 108.739 39.2097 108.091 39.2097ZM108.091 37.7457C108.395 37.7457 108.679 37.6737 108.943 37.5297C109.215 37.3777 109.431 37.1537 109.591 36.8577C109.751 36.5617 109.831 36.2017 109.831 35.7777C109.831 35.1457 109.663 34.6617 109.327 34.3257C108.999 33.9817 108.595 33.8097 108.115 33.8097C107.635 33.8097 107.231 33.9817 106.903 34.3257C106.583 34.6617 106.423 35.1457 106.423 35.7777C106.423 36.4097 106.579 36.8977 106.891 37.2417C107.211 37.5777 107.611 37.7457 108.091 37.7457Z" fill="white"/>
<path id="Vector_18" d="M102.445 33.8341V37.0501C102.445 37.2741 102.497 37.4381 102.601 37.5421C102.713 37.6381 102.897 37.6861 103.153 37.6861H103.933V39.1021H102.877C101.461 39.1021 100.753 38.4141 100.753 37.0381V33.8341H99.9609V32.4541H100.753V30.8101H102.445V32.4541H103.933V33.8341H102.445Z" fill="white"/>
<path id="Vector_19" d="M96.0689 39.186C95.4849 39.186 94.9569 39.086 94.4849 38.886C94.0209 38.686 93.6529 38.398 93.3809 38.022C93.1089 37.646 92.9689 37.202 92.9609 36.69H94.7609C94.7849 37.034 94.9049 37.306 95.1209 37.506C95.3449 37.706 95.6489 37.806 96.0329 37.806C96.4249 37.806 96.7329 37.714 96.9569 37.53C97.1809 37.338 97.2929 37.09 97.2929 36.786C97.2929 36.538 97.2169 36.334 97.0649 36.174C96.9129 36.014 96.7209 35.89 96.4889 35.802C96.2649 35.706 95.9529 35.602 95.5529 35.49C95.0089 35.33 94.5649 35.174 94.2209 35.022C93.8849 34.862 93.5929 34.626 93.3449 34.314C93.1049 33.994 92.9849 33.57 92.9849 33.042C92.9849 32.546 93.1089 32.114 93.3569 31.746C93.6049 31.378 93.9529 31.098 94.4009 30.906C94.8489 30.706 95.3609 30.606 95.9369 30.606C96.8009 30.606 97.5009 30.818 98.0369 31.242C98.5809 31.658 98.8809 32.242 98.9369 32.994H97.0889C97.0729 32.706 96.9489 32.47 96.7169 32.286C96.4929 32.094 96.1929 31.998 95.8169 31.998C95.4889 31.998 95.2249 32.082 95.0249 32.25C94.8329 32.418 94.7369 32.662 94.7369 32.982C94.7369 33.206 94.8089 33.394 94.9529 33.546C95.1049 33.69 95.2889 33.81 95.5049 33.906C95.7289 33.994 96.0409 34.098 96.4409 34.218C96.9849 34.378 97.4289 34.538 97.7729 34.698C98.1169 34.858 98.4129 35.098 98.6609 35.418C98.9089 35.738 99.0329 36.158 99.0329 36.678C99.0329 37.126 98.9169 37.542 98.6849 37.926C98.4529 38.31 98.1129 38.618 97.6649 38.85C97.2169 39.074 96.6849 39.186 96.0689 39.186Z" fill="white"/>
<path id="Vector_20" d="M83.8675 33.4137C84.0835 33.1097 84.3795 32.8577 84.7555 32.6577C85.1395 32.4497 85.5755 32.3457 86.0635 32.3457C86.6315 32.3457 87.1435 32.4857 87.5995 32.7657C88.0635 33.0457 88.4275 33.4457 88.6915 33.9657C88.9635 34.4777 89.0995 35.0737 89.0995 35.7537C89.0995 36.4337 88.9635 37.0377 88.6915 37.5657C88.4275 38.0857 88.0635 38.4897 87.5995 38.7777C87.1435 39.0657 86.6315 39.2097 86.0635 39.2097C85.5755 39.2097 85.1435 39.1097 84.7675 38.9097C84.3995 38.7097 84.0995 38.4577 83.8675 38.1537V42.2697H82.1875V32.4537H83.8675V33.4137ZM87.3835 35.7537C87.3835 35.3537 87.2995 35.0097 87.1315 34.7217C86.9715 34.4257 86.7555 34.2017 86.4835 34.0497C86.2195 33.8977 85.9315 33.8217 85.6195 33.8217C85.3155 33.8217 85.0275 33.9017 84.7555 34.0617C84.4915 34.2137 84.2755 34.4377 84.1075 34.7337C83.9475 35.0297 83.8675 35.3777 83.8675 35.7777C83.8675 36.1777 83.9475 36.5257 84.1075 36.8217C84.2755 37.1177 84.4915 37.3457 84.7555 37.5057C85.0275 37.6577 85.3155 37.7337 85.6195 37.7337C85.9315 37.7337 86.2195 37.6537 86.4835 37.4937C86.7555 37.3337 86.9715 37.1057 87.1315 36.8097C87.2995 36.5137 87.3835 36.1617 87.3835 35.7537Z" fill="white"/>
<path id="Vector_21" d="M75.7347 33.4137C75.9507 33.1097 76.2467 32.8577 76.6227 32.6577C77.0067 32.4497 77.4427 32.3457 77.9307 32.3457C78.4987 32.3457 79.0107 32.4857 79.4667 32.7657C79.9307 33.0457 80.2947 33.4457 80.5587 33.9657C80.8307 34.4777 80.9667 35.0737 80.9667 35.7537C80.9667 36.4337 80.8307 37.0377 80.5587 37.5657C80.2947 38.0857 79.9307 38.4897 79.4667 38.7777C79.0107 39.0657 78.4987 39.2097 77.9307 39.2097C77.4427 39.2097 77.0107 39.1097 76.6347 38.9097C76.2667 38.7097 75.9667 38.4577 75.7347 38.1537V42.2697H74.0547V32.4537H75.7347V33.4137ZM79.2507 35.7537C79.2507 35.3537 79.1667 35.0097 78.9987 34.7217C78.8387 34.4257 78.6227 34.2017 78.3507 34.0497C78.0867 33.8977 77.7987 33.8217 77.4867 33.8217C77.1827 33.8217 76.8947 33.9017 76.6227 34.0617C76.3587 34.2137 76.1427 34.4377 75.9747 34.7337C75.8147 35.0297 75.7347 35.3777 75.7347 35.7777C75.7347 36.1777 75.8147 36.5257 75.9747 36.8217C76.1427 37.1177 76.3587 37.3457 76.6227 37.5057C76.8947 37.6577 77.1827 37.7337 77.4867 37.7337C77.7987 37.7337 78.0867 37.6537 78.3507 37.4937C78.6227 37.3337 78.8387 37.1057 78.9987 36.8097C79.1667 36.5137 79.2507 36.1617 79.2507 35.7537Z" fill="white"/>
<path id="Vector_22" d="M70.5973 37.5059H67.2613L66.7093 39.1019H64.9453L67.9573 30.7139H69.9133L72.9253 39.1019H71.1493L70.5973 37.5059ZM70.1413 36.1619L68.9293 32.6579L67.7173 36.1619H70.1413Z" fill="white"/>
</g>
</g>
</g>
</g>
<defs>
<filter id="filter0_d_498_391" x="0" y="0" width="205.043" height="64.3599" filterUnits="userSpaceOnUse" color-interpolation-filters="sRGB">
<feFlood flood-opacity="0" result="BackgroundImageFix"/>
<feColorMatrix in="SourceAlpha" type="matrix" values="0 0 0 0 0 0 0 0 0 0 0 0 0 0 0 0 0 0 127 0" result="hardAlpha"/>
<feOffset dy="3"/>
<feGaussianBlur stdDeviation="4"/>
<feComposite in2="hardAlpha" operator="out"/>
<feColorMatrix type="matrix" values="0 0 0 0 0 0 0 0 0 0 0 0 0 0 0 0 0 0 0.2 0"/>
<feBlend mode="normal" in2="BackgroundImageFix" result="effect1_dropShadow_498_391"/>
<feBlend mode="normal" in="SourceGraphic" in2="effect1_dropShadow_498_391" result="shape"/>
</filter>
</defs>
</svg>
